:SAMPLES-PER-SECOND 30
:FULLY-SPECIFIED
:DEGREES
102
root  4.65649 39.7204 11.4496 -178.392 -45.4956 173.386
RightUpLeg  -2.65604 -6.0855 0.179295
RightLeg  14.3215 6.17543 0.723316
RightFoot  -8.84904 0.111081 -7.8012
RightToes  -1.74624e-010 0 -3.6325e-017
Spine  3.35421 1.16827 6.34617
Spine1  6.18642 2.8015 -5.27767
HEad  -20.1831 -33.8714 5.04721
LeftShoulder1  -0.658669 5.17119 -33.3383
LeftArm  -4.56625 20.288 -39.5596
LeftForeArm  38.1931 -9.84874 -7.55351
LeftHand  -0.133579 7.74702 -4.21204
RightShoulder  -1.04886 -6.32674 30.5984
RightArm  21.7241 -1.32313 46.5259
RightForeArm  14.2488 38.8284 8.13125
RightHand  -0.372466 5.36947 -4.32653
LeftUpLeg  -7.31519 2.32633 0.59753
LeftLeg  9.63044 -4.15316 -0.317024
LeftFoot  -4.82999 0.305031 -5.3932
LeftToes  -3.96543e-010 8.93632e-011 -2.58531e-011
103
root  4.10939 39.5771 11.2291 -179.583 -45.6699 173.663
RightUpLeg  -1.97481 -4.6314 -0.129037
RightLeg  17.143 4.67931 0.822855
RightFoot  -11.0835 -0.059236 -6.96144
RightToes  -1.74624e-010 0 -3.6325e-017
Spine  3.75142 0.945698 5.23139
Spine1  6.36754 2.50931 -5.14926
HEad  -20.0758 -34.1459 5.68175
LeftShoulder1  -0.596069 5.03637 -32.7458
LeftArm  -5.62526 19.6272 -39.8477
LeftForeArm  40.634 -8.74533 -7.54054
LeftHand  -0.140523 7.43899 -5.21818
RightShoulder  -1.128 -6.47799 31.387
RightArm  19.7484 -3.37898 45.5251
RightForeArm  16.0854 42.5364 9.21037
RightHand  -0.422463 5.9118 -4.66376
LeftUpLeg  -6.70853 3.86721 0.371541
LeftLeg  10.5476 -5.95674 -1.00604
LeftFoot  -1.50296 0.193599 -2.06514
LeftToes  -3.96543e-010 8.93632e-011 -2.58531e-011
104
root  3.60429 39.2881 11.0055 179.316 -44.6791 173.08
RightUpLeg  -2.32849 -2.79277 -1.22665
RightLeg  22.802 3.85108 1.63238
RightFoot  -13.4389 -0.200742 -6.07892
RightToes  -1.74624e-010 0 -3.6325e-017
Spine  4.87807 1.29532 3.18304
Spine1  6.48609 2.73901 -5.07516
HEad  -19.8692 -34.723 6.50104
LeftShoulder1  -0.609435 5.07472 -32.6198
LeftArm  -4.84976 18.8441 -39.3899
LeftForeArm  39.6219 -9.35492 -7.62074
LeftHand  -0.152782 7.64766 -5.2262
RightShoulder  -1.15008 -6.49455 31.9088
RightArm  17.49 -5.14132 44.8322
RightForeArm  18.0388 45.8537 10.266
RightHand  -0.473214 5.97422 -5.14331
LeftUpLeg  -5.81761 3.98258 -0.0508192
LeftLeg  14.2797 -5.28721 -1.1542
LeftFoot  -4.86641 0.225858 -3.46523
LeftToes  -3.96543e-010 8.93632e-011 -2.58531e-011
105
root  3.19763 38.9445 10.7926 179.295 -42.9053 170.921
RightUpLeg  -5.03242 -2.36778 -3.57567
RightLeg  32.2667 4.8308 3.06259
RightFoot  -14.2768 -0.191356 -3.63077
RightToes  -1.74624e-010 0 -3.6325e-017
Spine  6.52199 1.82295 -0.563654
Spine1  6.22709 2.90217 -4.58291
HEad  -19.439 -34.3598 6.93301
LeftShoulder1  -0.773496 5.46979 -33.1873
LeftArm  -3.43186 17.2995 -38.029
LeftForeArm  36.8996 -10.0326 -7.8636
LeftHand  -0.0957582 7.39243 -3.05843
RightShoulder  -1.15905 -6.51009 32.0056
RightArm  15.3198 -5.6066 45.6432
RightForeArm  19.7558 47.7605 10.9047
RightHand  -0.595587 6.28077 -6.25179
LeftUpLeg  -4.92595 4.50353 -1.63568
LeftLeg  17.6718 -4.29866 -1.20395
LeftFoot  -7.63563 0.169995 -3.79445
LeftToes  -3.96543e-010 8.93632e-011 -2.58531e-011
106
root  2.79737 38.6185 10.5731 179.333 -41.194 169.077
RightUpLeg  -8.81055 -3.11021 -6.1199
RightLeg  42.2695 5.75191 5.30489
RightFoot  -12.9492 -0.0758177 1.80696
RightToes  -1.74624e-010 0 -3.6325e-017
Spine  7.46934 2.31913 -2.78955
Spine1  6.37388 3.31374 -5.2865
HEad  -19.6654 -34.1808 7.6698
LeftShoulder1  -0.784142 5.48007 -33.513
LeftArm  -2.97312 14.5487 -36.7621
LeftForeArm  35.2114 -9.75237 -8.13419
LeftHand  -0.0683164 7.08672 -1.55456
RightShoulder  -1.18945 -6.55399 32.4485
RightArm  12.2724 -5.16619 46.5865
RightForeArm  22.2793 49.107 11.2817
RightHand  -0.553922 6.1458 -5.89554
LeftUpLeg  -4.22984 4.67626 -3.26391
LeftLeg  20.6524 -2.9519 -0.901063
LeftFoot  -10.0589 0.0996255 -3.45254
LeftToes  -3.96543e-010 8.93632e-011 -2.58531e-011
107
root  2.43518 38.443 10.345 178.866 -39.9176 168.774
RightUpLeg  -12.4126 -4.52005 -7.65619
RightLeg  48.7589 6.22702 7.19644
RightFoot  -10.3507 -0.11538 6.25772
RightToes  -1.74624e-010 0 -3.6325e-017
Spine  7.77158 2.68949 -3.0763
Spine1  6.61923 3.80444 -6.35627
HEad  -19.3057 -34.4997 7.27249
LeftShoulder1  -0.758152 5.40365 -33.7362
LeftArm  -3.89828 11.1024 -36.0932
LeftForeArm  35.4111 -8.92126 -8.17572
LeftHand  -0.0374792 6.61689 0.184976
RightShoulder  -1.14819 -6.45311 32.3705
RightArm  9.81383 -3.28833 46.8298
RightForeArm  23.3284 49.9605 11.579
RightHand  -0.519387 6.37479 -5.45569
LeftUpLeg  -3.66024 5.38668 -3.63214
LeftLeg  22.4998 -2.34858 -0.724374
LeftFoot  -11.8362 0.0565889 -3.11583
LeftToes  -3.96543e-010 8.93632e-011 -2.58531e-011
108
root  2.08914 38.4397 10.082 178.078 -38.9861 168.951
RightUpLeg  -14.9244 -5.85411 -8.67271
RightLeg  50.4992 5.58593 6.88694
RightFoot  -8.98144 -0.187778 6.1745
RightToes  -1.74624e-010 0 -3.6325e-017
Spine  8.42543 2.85863 -2.65757
Spine1  6.268 4.149 -7.24107
HEad  -18.6488 -35.153 6.86283
LeftShoulder1  -0.71258 5.32056 -33.0568
LeftArm  -5.04223 8.34383 -36.6036
LeftForeArm  36.0441 -8.85224 -7.84186
LeftHand  -0.0732735 7.72379 -1.39863
RightShoulder  -1.06036 -6.27429 31.7114
RightArm  7.9826 -0.102865 46.4759
RightForeArm  25.0626 51.068 11.9453
RightHand  -0.557363 7.01689 -5.55137
LeftUpLeg  -2.15979 5.41612 -3.60088
LeftLeg  22.4972 -1.59302 -0.381218
LeftFoot  -12.7849 0.0361963 -3.22489
LeftToes  -3.96543e-010 8.93632e-011 -2.58531e-011
109
root  1.762 38.542 9.80544 176.916 -38.4075 169.649
RightUpLeg  -16.2367 -6.25482 -9.27131
RightLeg  47.9883 5.06844 5.69649
RightFoot  -8.72657 -0.183198 5.4314
RightToes  -1.74624e-010 0 -3.6325e-017
Spine  8.8995 2.78276 -1.82754
Spine1  6.48365 4.22646 -7.60116
HEad  -18.8836 -35.4169 6.39608
LeftShoulder1  -0.60161 5.06173 -32.4655
LeftArm  -4.95851 6.0746 -37.3703
LeftForeArm  34.6546 -10.2026 -7.44697
LeftHand  -0.042481 7.25966 -0.103273
RightShoulder  -0.927609 -5.99008 30.6858
RightArm  5.21576 4.76952 45.5456
RightForeArm  27.6814 52.4904 12.4236
RightHand  -0.6332 7.43231 -6.0803
LeftUpLeg  -0.175181 5.36244 -3.09944
LeftLeg  21.582 -1.03321 -0.107199
LeftFoot  -13.0668 0.0323924 -3.0385
LeftToes  -3.96543e-010 8.93632e-011 -2.58531e-011
110
root  1.45416 38.6198 9.49028 176.106 -37.857 170.477
RightUpLeg  -17.3998 -5.24761 -9.78176
RightLeg  42.8587 5.198 4.84415
RightFoot  -8.2315 -0.197014 5.1929
RightToes  -1.74624e-010 0 -3.6325e-017
Spine  9.31362 2.57554 -1.04985
Spine1  6.25768 4.08281 -7.58735
HEad  -18.1848 -35.5693 5.47183
LeftShoulder1  -0.525016 4.89178 -31.6842
LeftArm  -1.95707 4.9935 -38.0704
LeftForeArm  30.4101 -13.9015 -6.63523
LeftHand  -0.0651555 7.72497 -0.80577
RightShoulder  -0.728737 -5.55025 28.9762
RightArm  0.556201 10.1169 44.2742
RightForeArm  30.9102 55.3501 13.6755
RightHand  -0.670028 7.39561 -6.43429
LeftUpLeg  1.25145 5.68503 -2.35929
LeftLeg  20.9628 -0.933512 -0.0464918
LeftFoot  -13.5834 0.0213702 -3.07542
LeftToes  -3.96543e-010 8.93632e-011 -2.58531e-011
111
root  1.17162 38.6099 9.08777 175.863 -37.6144 170.851
RightUpLeg  -18.354 -3.84299 -11.0282
RightLeg  36.7437 6.3938 4.85055
RightFoot  -7.76065 -0.233808 5.76392
RightToes  -1.74624e-010 0 -3.6325e-017
Spine  9.66492 2.38098 -0.803883
Spine1  5.73167 3.8597 -7.57009
HEad  -18.7865 -35.4557 5.36001
LeftShoulder1  -0.443808 4.69776 -31.0355
LeftArm  3.4623 4.25921 -38.4925
LeftForeArm  24.5271 -18.2199 -5.37116
LeftHand  -0.0180039 6.53322 1.36704
RightShoulder  -0.602665 -5.27746 27.1863
RightArm  -4.91503 15.9045 42.2735
RightForeArm  33.4693 59.1098 15.8453
RightHand  -0.791601 6.86476 -7.82458
LeftUpLeg  2.07548 5.65055 -1.9599
LeftLeg  21.0989 -0.832329 0.0241733
LeftFoot  -14.4445 0.0121962 -2.82248
LeftToes  -3.96543e-010 8.93632e-011 -2.58531e-011
112
root  0.910182 38.5926 8.66553 175.944 -38.2852 170.844
RightUpLeg  -18.7135 -2.22456 -13.0522
RightLeg  30.017 7.4417 4.4016
RightFoot  -6.27921 -0.331132 6.50891
RightToes  -1.74624e-010 0 -3.6325e-017
Spine  10.281 1.9181 -0.608049
Spine1  4.96566 3.35553 -7.36053
HEad  -19.5563 -35.7601 5.27854
LeftShoulder1  -0.310404 4.34987 -30.5173
LeftArm  6.87702 4.02801 -38.5781
LeftForeArm  21.3778 -23.4369 -3.91828
LeftHand  -0.0247648 6.45669 1.05746
RightShoulder  -0.450426 -4.93159 24.738
RightArm  -11.621 21.4488 39.9852
RightForeArm  38.751 63.2741 18.671
RightHand  -0.810599 7.09582 -7.84813
LeftUpLeg  2.8434 5.1591 -1.87438
LeftLeg  21.037 -1.03988 -0.0273405
LeftFoot  -15.1532 0.00586285 -2.79758
LeftToes  -3.96543e-010 8.93632e-011 -2.58531e-011
113
root  0.686387 38.52 8.16786 176.683 -39.2908 170.293
RightUpLeg  -19.0948 0.718662 -16.0285
RightLeg  23.6212 7.59101 3.46726
RightFoot  -4.86241 -0.441654 7.20202
RightToes  -1.74624e-010 0 -3.6325e-017
Spine  10.6609 1.56383 0.112766
Spine1  4.41972 3.30442 -8.43283
HEad  -20.3947 -37.3404 5.5814
LeftShoulder1  -0.195536 4.05222 -29.5442
LeftArm  5.36809 2.80286 -39.004
LeftForeArm  23.8184 -27.2684 -4.56502
LeftHand  -0.0311801 5.13533 2.26738
RightShoulder  -0.413055 -4.89899 22.6598
RightArm  -18.925 26.5224 36.4204
RightForeArm  42.5816 66.9269 22.232
RightHand  -1.02778 7.74938 -9.42147
LeftUpLeg  3.12056 4.01896 -2.30812
LeftLeg  21.2704 -0.844613 0.099373
LeftFoot  -15.8493 -0.0121584 -2.62738
LeftToes  -3.96543e-010 8.93632e-011 -2.58531e-011
